<?xml version="1.0" encoding="UTF-8" standalone="no"?>
<!DOCTYPE svg PUBLIC "-//W3C//DTD SVG 1.1//EN"
 "http://www.w3.org/Graphics/SVG/1.1/DTD/svg11.dtd">
<!-- Generated by graphviz version 12.1.2 (0)
 -->
<!-- Title: G Pages: 1 -->
<svg width="1654pt" height="238pt"
 viewBox="0.00 0.00 1654.29 237.65" xmlns="http://www.w3.org/2000/svg" xmlns:xlink="http://www.w3.org/1999/xlink">
<g id="graph0" class="graph" transform="scale(1 1) rotate(0) translate(4 233.65)">
<title>G</title>
<polygon fill="white" stroke="none" points="-4,4 -4,-233.65 1650.29,-233.65 1650.29,4 -4,4"/>
<!-- stop -->
<g id="node1" class="node">
<title>stop</title>
<ellipse fill="none" stroke="red" cx="1616.02" cy="-120.23" rx="26.27" ry="26.27"/>
<ellipse fill="none" stroke="red" cx="1616.02" cy="-120.23" rx="30.27" ry="30.27"/>
<text text-anchor="middle" x="1616.02" y="-115.18" font-family="Times,serif" font-size="14.00">stop</text>
</g>
<!-- start -->
<g id="node2" class="node">
<title>start</title>
<ellipse fill="none" stroke="black" cx="26.78" cy="-110.23" rx="26.78" ry="26.78"/>
<text text-anchor="middle" x="26.78" y="-105.18" font-family="Times,serif" font-size="14.00">start</text>
</g>
<!-- swahili -->
<g id="node3" class="node">
<title>swahili</title>
<ellipse fill="none" stroke="black" cx="128.1" cy="-110.23" rx="37.53" ry="37.53"/>
<text text-anchor="middle" x="128.1" y="-105.18" font-family="Times,serif" font-size="14.00">swahili</text>
</g>
<!-- start&#45;&gt;swahili -->
<g id="edge1" class="edge">
<title>start&#45;&gt;swahili</title>
<path fill="none" stroke="black" d="M53.88,-110.23C61.63,-110.23 70.38,-110.23 79.07,-110.23"/>
<polygon fill="black" stroke="black" points="78.84,-113.73 88.84,-110.23 78.84,-106.73 78.84,-113.73"/>
</g>
<!-- extra -->
<g id="node4" class="node">
<title>extra</title>
<ellipse fill="none" stroke="black" cx="291.73" cy="-151.23" rx="29.34" ry="29.34"/>
<text text-anchor="middle" x="291.73" y="-146.18" font-family="Times,serif" font-size="14.00">extra</text>
</g>
<!-- swahili&#45;&gt;extra -->
<g id="edge3" class="edge">
<title>swahili&#45;&gt;extra</title>
<path fill="none" stroke="black" d="M164.97,-119.33C190.73,-125.87 225.43,-134.67 251.85,-141.37"/>
<polygon fill="black" stroke="black" points="250.96,-144.76 261.52,-143.82 252.68,-137.97 250.96,-144.76"/>
<text text-anchor="middle" x="214.01" y="-142.32" font-family="Times,serif" font-size="14.00">if has extra</text>
</g>
<!-- part_of_speech -->
<g id="node5" class="node">
<title>part_of_speech</title>
<ellipse fill="none" stroke="black" cx="425.29" cy="-106.23" rx="67.22" ry="67.22"/>
<text text-anchor="middle" x="425.29" y="-101.18" font-family="Times,serif" font-size="14.00">part_of_speech</text>
</g>
<!-- swahili&#45;&gt;part_of_speech -->
<g id="edge2" class="edge">
<title>swahili&#45;&gt;part_of_speech</title>
<path fill="none" stroke="black" d="M165.89,-109.73C210.81,-109.13 287.99,-108.08 346.33,-107.29"/>
<polygon fill="black" stroke="black" points="346.27,-110.79 356.22,-107.16 346.18,-103.79 346.27,-110.79"/>
</g>
<!-- extra&#45;&gt;part_of_speech -->
<g id="edge4" class="edge">
<title>extra&#45;&gt;part_of_speech</title>
<path fill="none" stroke="black" d="M319.99,-141.91C329.02,-138.82 339.55,-135.22 350.37,-131.52"/>
<polygon fill="black" stroke="black" points="351.49,-134.83 359.82,-128.28 349.23,-128.21 351.49,-134.83"/>
</g>
<!-- noun -->
<g id="node6" class="node">
<title>noun</title>
<ellipse fill="none" stroke="black" cx="639.6" cy="-147.23" rx="29.34" ry="29.34"/>
<text text-anchor="middle" x="639.6" y="-142.18" font-family="Times,serif" font-size="14.00">noun</text>
</g>
<!-- part_of_speech&#45;&gt;noun -->
<g id="edge5" class="edge">
<title>part_of_speech&#45;&gt;noun</title>
<path fill="none" stroke="black" d="M491.72,-118.87C527.05,-125.69 569.47,-133.88 599.62,-139.71"/>
<polygon fill="black" stroke="black" points="598.57,-143.07 609.05,-141.53 599.89,-136.19 598.57,-143.07"/>
<text text-anchor="middle" x="551.38" y="-140.53" font-family="Times,serif" font-size="14.00">if pos == noun</text>
</g>
<!-- english -->
<g id="node9" class="node">
<title>english</title>
<ellipse fill="none" stroke="black" cx="940.99" cy="-102.23" rx="37.53" ry="37.53"/>
<text text-anchor="middle" x="940.99" y="-97.18" font-family="Times,serif" font-size="14.00">english</text>
</g>
<!-- part_of_speech&#45;&gt;english -->
<g id="edge6" class="edge">
<title>part_of_speech&#45;&gt;english</title>
<path fill="none" stroke="black" d="M492.18,-98.7C534.05,-94.55 589.44,-90.23 638.6,-90.23 638.6,-90.23 638.6,-90.23 838.12,-90.23 855.91,-90.23 875.34,-92.06 892.41,-94.29"/>
<polygon fill="black" stroke="black" points="891.92,-97.76 902.31,-95.67 892.89,-90.82 891.92,-97.76"/>
</g>
<!-- plural -->
<g id="node7" class="node">
<title>plural</title>
<ellipse fill="none" stroke="black" cx="738.36" cy="-197.23" rx="32.41" ry="32.41"/>
<text text-anchor="middle" x="738.36" y="-192.18" font-family="Times,serif" font-size="14.00">plural</text>
</g>
<!-- noun&#45;&gt;plural -->
<g id="edge7" class="edge">
<title>noun&#45;&gt;plural</title>
<path fill="none" stroke="black" d="M666.28,-160.5C676.29,-165.68 687.98,-171.72 698.95,-177.39"/>
<polygon fill="black" stroke="black" points="697.34,-180.5 707.83,-181.98 700.56,-174.28 697.34,-180.5"/>
</g>
<!-- ngeli -->
<g id="node8" class="node">
<title>ngeli</title>
<ellipse fill="none" stroke="black" cx="837.12" cy="-147.23" rx="29.34" ry="29.34"/>
<text text-anchor="middle" x="837.12" y="-142.18" font-family="Times,serif" font-size="14.00">ngeli</text>
</g>
<!-- noun&#45;&gt;ngeli -->
<g id="edge8" class="edge">
<title>noun&#45;&gt;ngeli</title>
<path fill="none" stroke="black" d="M669.03,-147.23C702.53,-147.23 758.4,-147.23 796.22,-147.23"/>
<polygon fill="black" stroke="black" points="795.82,-150.73 805.82,-147.23 795.82,-143.73 795.82,-150.73"/>
</g>
<!-- plural&#45;&gt;ngeli -->
<g id="edge9" class="edge">
<title>plural&#45;&gt;ngeli</title>
<path fill="none" stroke="black" d="M767.61,-182.64C777.92,-177.31 789.72,-171.21 800.59,-165.59"/>
<polygon fill="black" stroke="black" points="802.02,-168.79 809.3,-161.09 798.81,-162.57 802.02,-168.79"/>
</g>
<!-- ngeli&#45;&gt;english -->
<g id="edge10" class="edge">
<title>ngeli&#45;&gt;english</title>
<path fill="none" stroke="black" d="M864.35,-135.64C873.9,-131.43 884.98,-126.53 895.67,-121.81"/>
<polygon fill="black" stroke="black" points="897.03,-125.04 904.76,-117.79 894.2,-118.63 897.03,-125.04"/>
</g>
<!-- english&#45;&gt;stop -->
<g id="edge14" class="edge">
<title>english&#45;&gt;stop</title>
<path fill="none" stroke="black" d="M976.04,-116.28C982.76,-118.79 989.82,-121.24 996.53,-123.23 1065.79,-143.84 1083.66,-149.64 1155.53,-157.23 1338.05,-176.53 1387.09,-164.69 1567.74,-132.23 1570.21,-131.79 1572.75,-131.29 1575.29,-130.75"/>
<polygon fill="black" stroke="black" points="1575.97,-134.18 1584.93,-128.53 1574.4,-127.36 1575.97,-134.18"/>
</g>
<!-- english&#45;&gt;english -->
<g id="edge13" class="edge">
<title>english&#45;&gt;english</title>
<path fill="none" stroke="black" d="M930.51,-138.55C930.82,-149.36 934.32,-157.77 940.99,-157.77 945.06,-157.77 947.95,-154.64 949.65,-149.76"/>
<polygon fill="black" stroke="black" points="953.08,-150.48 951.23,-140.05 946.17,-149.35 953.08,-150.48"/>
<text text-anchor="middle" x="940.99" y="-160.97" font-family="Times,serif" font-size="14.00">if has multiple definitions</text>
</g>
<!-- examples -->
<g id="node10" class="node">
<title>examples</title>
<ellipse fill="none" stroke="black" cx="1245.15" cy="-102.23" rx="46.23" ry="46.23"/>
<text text-anchor="middle" x="1245.15" y="-97.18" font-family="Times,serif" font-size="14.00">examples</text>
</g>
<!-- english&#45;&gt;examples -->
<g id="edge11" class="edge">
<title>english&#45;&gt;examples</title>
<path fill="none" stroke="black" d="M978.74,-102.23C1030.68,-102.23 1126.02,-102.23 1187.18,-102.23"/>
<polygon fill="black" stroke="black" points="1187.04,-105.73 1197.04,-102.23 1187.04,-98.73 1187.04,-105.73"/>
<text text-anchor="middle" x="1067.03" y="-105.43" font-family="Times,serif" font-size="14.00">if has examples</text>
</g>
<!-- alternates -->
<g id="node11" class="node">
<title>alternates</title>
<ellipse fill="none" stroke="black" cx="1502.51" cy="-46.23" rx="46.23" ry="46.23"/>
<text text-anchor="middle" x="1502.51" y="-41.18" font-family="Times,serif" font-size="14.00">alternates</text>
</g>
<!-- english&#45;&gt;alternates -->
<g id="edge12" class="edge">
<title>english&#45;&gt;alternates</title>
<path fill="none" stroke="black" d="M973.65,-83.1C980.99,-79.15 988.9,-75.27 996.53,-72.23 1137.23,-16.18 1183.48,-23.72 1334.78,-30.73 1371.5,-32.44 1412.63,-36.24 1444.85,-39.65"/>
<polygon fill="black" stroke="black" points="1444.47,-43.13 1454.79,-40.73 1445.23,-36.17 1444.47,-43.13"/>
<text text-anchor="middle" x="1245.15" y="-33.93" font-family="Times,serif" font-size="14.00">if has alternates but no examples</text>
</g>
<!-- examples&#45;&gt;stop -->
<g id="edge17" class="edge">
<title>examples&#45;&gt;stop</title>
<path fill="none" stroke="black" d="M1291.75,-104.46C1364.27,-108 1504.77,-114.85 1574.18,-118.24"/>
<polygon fill="black" stroke="black" points="1573.81,-121.73 1583.97,-118.72 1574.15,-114.74 1573.81,-121.73"/>
</g>
<!-- examples&#45;&gt;english -->
<g id="edge15" class="edge">
<title>examples&#45;&gt;english</title>
<path fill="none" stroke="black" d="M1199.98,-91.67C1150.18,-81.35 1066.98,-68.93 996.53,-81.73 993.31,-82.32 990.03,-83.08 986.76,-83.97"/>
<polygon fill="black" stroke="black" points="985.73,-80.63 977.23,-86.95 987.82,-87.31 985.73,-80.63"/>
<text text-anchor="middle" x="1067.03" y="-84.93" font-family="Times,serif" font-size="14.00">if has multiple definitions</text>
</g>
<!-- examples&#45;&gt;alternates -->
<g id="edge16" class="edge">
<title>examples&#45;&gt;alternates</title>
<path fill="none" stroke="black" d="M1290.63,-92.48C1333.8,-83.01 1399.44,-68.62 1446,-58.41"/>
<polygon fill="black" stroke="black" points="1446.61,-61.85 1455.63,-56.29 1445.11,-55.02 1446.61,-61.85"/>
<text text-anchor="middle" x="1395.53" y="-80.79" font-family="Times,serif" font-size="14.00">if has alternates</text>
</g>
<!-- alternates&#45;&gt;stop -->
<g id="edge18" class="edge">
<title>alternates&#45;&gt;stop</title>
<path fill="none" stroke="black" d="M1541.57,-71.49C1554.32,-79.95 1568.44,-89.32 1580.86,-97.57"/>
<polygon fill="black" stroke="black" points="1578.88,-100.45 1589.15,-103.07 1582.75,-94.62 1578.88,-100.45"/>
</g>
</g>
</svg>
